<svg xmlns="http://www.w3.org/2000/svg" width="1200" height="360" viewBox="0 0 1200 360" role="img" aria-label="Active Directory Printer Administration and Troubleshooting"><defs><linearGradient id="g" x1="0" y1="0" x2="1" y2="1"><stop offset="0" stop-color="#071a2d"/><stop offset="0.52" stop-color="#0b4f8a"/><stop offset="1" stop-color="#0b8f87"/></linearGradient></defs><rect width="1200" height="360" rx="24" fill="url(#g)"/><g fill="none" stroke="#7dd3fc" stroke-width="3" opacity=".2"><circle cx="1030" cy="70" r="130"/><circle cx="1110" cy="260" r="180"/><path d="M0 300 C260 200 400 380 680 270 S1000 160 1200 240"/></g><g transform="translate(72 79)"><rect x="0" y="46" width="190" height="112" rx="16" fill="#e8f5ff"/><rect x="26" y="0" width="138" height="78" rx="8" fill="#fff"/><rect x="30" y="126" width="130" height="74" rx="8" fill="#fff"/><rect x="48" y="142" width="94" height="8" rx="4" fill="#0b8f87"/><rect x="48" y="160" width="78" height="8" rx="4" fill="#0b4f8a"/><circle cx="158" cy="76" r="9" fill="#22c55e"/></g><text x="315" y="112" fill="#7dd3fc" font-family="Segoe UI,Arial,sans-serif" font-size="25" font-weight="700" letter-spacing="3">WINDOWS SERVER • ACTIVE DIRECTORY • POWERSHELL</text><text x="315" y="177" fill="#ffffff" font-family="Segoe UI,Arial,sans-serif" font-size="46" font-weight="800">Printer Administration</text><text x="315" y="230" fill="#ffffff" font-family="Segoe UI,Arial,sans-serif" font-size="46" font-weight="800">&amp; Troubleshooting</text><text x="318" y="278" fill="#d6f3ff" font-family="Segoe UI,Arial,sans-serif" font-size="24">Enterprise deployment • Network diagnostics • Automation • Helpdesk runbooks</text><text x="318" y="321" fill="#7dd3fc" font-family="Segoe UI,Arial,sans-serif" font-size="20" font-weight="700">XUAN TOAN NGUYEN  |  #ToanNguyenITOz</text></svg>